<?xml version="1.0" standalone="no"?>
<!DOCTYPE svg PUBLIC "-//W3C//DTD SVG 20010904//EN"
 "http://www.w3.org/TR/2001/REC-SVG-20010904/DTD/svg10.dtd">
<svg version="1.0" xmlns="http://www.w3.org/2000/svg"
 width="624.000000pt" height="624.000000pt" viewBox="0 0 624.000000 624.000000"
 preserveAspectRatio="xMidYMid meet">
<metadata>
Created by potrace 1.14, written by Peter Selinger 2001-2017
</metadata>
<g transform="translate(0.000000,624.000000) scale(0.100000,-0.100000)"
fill="#000000" stroke="none">
<path d="M508 6155 c-2 -3 -18 -6 -34 -9 -47 -6 -177 -60 -202 -83 -7 -7 -17
-13 -22 -13 -5 0 -38 -29 -73 -64 -74 -73 -133 -171 -159 -265 -17 -62 -18
-182 -18 -2591 0 -2182 2 -2533 15 -2587 15 -64 53 -155 67 -161 4 -2 8 -9 8
-16 0 -7 10 -25 23 -39 95 -109 136 -143 228 -186 137 -65 -61 -61 2755 -61
1429 0 2574 4 2590 9 16 5 49 15 74 22 42 12 135 58 168 83 9 6 39 34 68 63
95 92 160 220 171 338 8 80 8 5017 0 5076 -23 175 -168 357 -345 436 -122 54
17 51 -2743 52 -1411 1 -2568 -1 -2571 -4z m2638 -435 c5 -143 25 -344 39
-390 2 -8 7 -29 10 -47 3 -18 19 -83 35 -145 17 -62 32 -120 34 -128 14 -52
107 -272 154 -365 54 -106 191 -323 249 -394 123 -151 227 -262 338 -358 86
-74 101 -86 125 -103 12 -8 32 -23 43 -32 37 -30 40 -32 127 -87 140 -89 151
-95 265 -150 61 -29 122 -60 138 -68 15 -8 27 -11 27 -7 0 3 6 2 13 -4 11 -9
203 -78 245 -87 9 -2 51 -13 92 -24 41 -10 89 -22 105 -25 17 -2 41 -7 55 -10
118 -23 242 -36 377 -39 l93 -2 0 -67 c0 -64 -1 -68 -22 -68 -187 -3 -2651 0
-2655 3 -3 4 -6 2225 -3 2625 l0 33 57 -3 57 -3 2 -55z m-159 -2600 l43 0 0
-1330 0 -1330 -67 0 -68 0 -3 68 c-2 74 -10 178 -16 232 -5 36 -8 60 -22 140
-4 25 -8 50 -9 55 -1 6 -4 24 -9 40 -4 17 -12 50 -18 75 -21 86 -69 240 -93
295 -7 17 -30 70 -51 120 -67 155 -191 361 -307 510 -336 430 -815 751 -1337
896 -47 13 -49 13 -90 23 -95 22 -162 35 -205 41 -27 4 -61 9 -75 11 -44 6
-173 16 -246 19 -39 1 -75 5 -80 8 -5 3 -7 32 -6 66 l4 60 56 3 c42 2 2255 1
2599 -2z"/>
</g>
</svg>
